<svg xmlns="http://www.w3.org/2000/svg" viewBox="0 0 501 500">
  <path d="M250.488 0C112.412 0 0.487793 111.924 0.487793 250C0.487793 388.076 112.412 500 250.488 500C388.564 500 500.488 388.076 500.488 250C500.488 111.941 388.564 0.017059 250.488 0ZM365.141 360.56C360.655 367.929 351.051 370.232 343.715 365.745C285.015 329.87 211.116 321.767 124.097 341.641C115.704 343.569 107.346 338.315 105.435 329.922C103.507 321.528 108.744 313.17 117.154 311.259C212.378 289.509 294.074 298.874 359.973 339.133C367.308 343.654 369.645 353.224 365.141 360.56ZM395.728 292.511C390.082 301.689 378.072 304.555 368.912 298.925C301.733 257.625 199.277 245.667 119.799 269.788C109.495 272.91 98.6113 267.093 95.4724 256.807C92.3677 246.503 98.1848 235.636 108.471 232.497C199.26 204.947 312.139 218.287 389.297 265.711C398.475 271.358 401.375 283.35 395.728 292.511ZM398.355 221.614C317.769 173.763 184.845 169.362 107.908 192.699C95.5577 196.452 82.4905 189.475 78.7546 177.124C75.0187 164.773 81.9788 151.706 94.3465 147.953C182.661 121.153 329.454 126.322 422.221 181.389C433.326 187.99 436.977 202.337 430.392 213.425C423.825 224.548 409.444 228.216 398.355 221.614Z" fill="#1FD760"/>
</svg>
