<svg xmlns="http://www.w3.org/2000/svg" viewBox="0 0 32 24" role="img" aria-label="Gmail">
  <path fill="#4285F4" d="M2 4.5 6 7.4V22H3a3 3 0 0 1-3-3V6.1a2 2 0 0 1 2-1.6Z"/>
  <path fill="#34A853" d="M26 7.4 30 4.5a2 2 0 0 1 2 1.6V19a3 3 0 0 1-3 3h-3V7.4Z"/>
  <path fill="#FBBC04" d="M26 7.4V22h-5V11l5-3.6Z"/>
  <path fill="#EA4335" d="M6 7.4V22h5V11l5 3.6L30 4.5V3a3 3 0 0 0-4.8-2.4L16 7.3 6.8.6A3 3 0 0 0 2 3v1.5l14 10.1 10-7.2Z"/>
  <path fill="#C5221F" d="M6 7.4 2 4.5V3A3 3 0 0 1 6.8.6L16 7.3v7.3L6 7.4Z"/>
</svg>
