<svg xmlns="http://www.w3.org/2000/svg" viewBox="0 0 501 500">
  <defs>
    <linearGradient id="ig0" x1="5.13" y1="494.83" x2="459" y2="41" gradientUnits="userSpaceOnUse">
      <stop stop-color="#FFD521"/><stop offset=".05" stop-color="#FFD521"/><stop offset=".5" stop-color="#F50000"/><stop offset=".95" stop-color="#B900B4"/><stop offset="1" stop-color="#B900B4"/>
    </linearGradient>
    <linearGradient id="ig1" x1="5.13" y1="495.45" x2="459.35" y2="41.24" gradientUnits="userSpaceOnUse">
      <stop stop-color="#FFD521"/><stop offset=".05" stop-color="#FFD521"/><stop offset=".5" stop-color="#F50000"/><stop offset=".95" stop-color="#B900B4"/><stop offset="1" stop-color="#B900B4"/>
    </linearGradient>
    <linearGradient id="ig2" x1="5.25" y1="495.47" x2="459.36" y2="41.36" gradientUnits="userSpaceOnUse">
      <stop stop-color="#FFD521"/><stop offset=".05" stop-color="#FFD521"/><stop offset=".5" stop-color="#F50000"/><stop offset=".95" stop-color="#B900B4"/><stop offset="1" stop-color="#B900B4"/>
    </linearGradient>
  </defs>
  <path d="M414.088 116.558C414.088 99.9411 400.621 86.5234 384.065 86.5234C367.509 86.5234 354.03 99.9411 354.03 116.558C354.03 133.115 367.509 146.532 384.065 146.532C400.621 146.532 414.088 133.115 414.088 116.558Z" fill="url(#ig0)"/>
  <path d="M454.094 351.009C452.982 375.386 448.905 388.631 445.52 397.427C440.973 409.091 435.549 417.43 426.753 426.178C418.054 434.925 409.715 440.337 398.051 444.834C389.255 448.269 375.96 452.358 351.584 453.52C325.231 454.681 317.422 454.928 250.593 454.928C183.826 454.928 175.955 454.681 149.602 453.52C125.226 452.358 111.993 448.269 103.196 444.834C91.4713 440.337 83.1937 434.925 74.4462 426.178C65.6367 417.43 60.2131 409.091 55.7282 397.427C52.3423 388.631 48.2039 375.386 47.1531 351.009C45.8688 324.656 45.6334 316.724 45.6334 250.031C45.6334 183.202 45.8688 175.331 47.1531 148.978C48.2039 124.602 52.3423 111.369 55.7282 102.498C60.2131 90.8473 65.6367 82.5567 74.4462 73.8092C83.1937 65.0748 91.4713 59.6503 103.196 55.1042C111.993 51.6571 125.226 47.629 149.602 46.468C175.955 45.306 183.826 45.0094 250.593 45.0094C317.422 45.0094 325.231 45.306 351.584 46.468C375.96 47.629 389.255 51.6571 398.051 55.1042C409.715 59.6503 418.054 65.0748 426.753 73.8092C435.549 82.5567 440.973 90.8473 445.52 102.498C448.905 111.369 452.982 124.602 454.094 148.978C455.317 175.331 455.614 183.202 455.614 250.031C455.614 316.724 455.317 324.656 454.094 351.009ZM499.104 146.927C497.881 120.289 493.68 102.09 487.441 86.2391C481.091 69.7941 472.578 55.8576 458.641 41.921C444.766 28.0465 430.83 19.5335 414.385 13.1091C398.472 6.93126 380.334 2.68077 353.684 1.51969C327.034 0.23445 318.522 0 250.593 0C182.726 0 174.152 0.23445 147.502 1.51969C120.913 2.68077 102.788 6.93126 86.801 13.1091C70.4181 19.5335 56.4816 28.0465 42.6071 41.921C28.6705 55.8576 20.1575 69.7941 13.7452 86.2391C7.5673 102.09 3.36686 120.289 2.08162 146.927C0.920546 173.577 0.624023 182.102 0.624023 250.031C0.624023 317.898 0.920546 326.41 2.08162 353.06C3.36686 379.649 7.5673 397.835 13.7452 413.761C20.1575 430.144 28.6705 444.142 42.6071 458.017C56.4816 471.891 70.4181 480.467 86.801 486.879C102.788 493.056 120.913 497.257 147.502 498.48C174.152 499.703 182.726 500 250.593 500C318.522 500 327.034 499.703 353.684 498.48C380.334 497.257 398.472 493.056 414.385 486.879C430.83 480.467 444.766 471.891 458.641 458.017C472.578 444.142 481.091 430.144 487.441 413.761C493.68 397.835 497.881 379.649 499.104 353.06C500.327 326.41 500.624 317.898 500.624 250.031C500.624 182.102 500.327 173.577 499.104 146.927Z" fill="url(#ig1)"/>
  <path d="M250.593 333.292C204.595 333.292 167.27 296.028 167.27 250.03C167.27 203.958 204.595 166.646 250.593 166.646C296.604 166.646 333.978 203.958 333.978 250.03C333.978 296.028 296.604 333.292 250.593 333.292ZM250.593 121.574C179.687 121.574 122.26 179.124 122.26 250.03C122.26 320.875 179.687 378.363 250.593 378.363C321.499 378.363 378.987 320.875 378.987 250.03C378.987 179.124 321.499 121.574 250.593 121.574Z" fill="url(#ig2)"/>
</svg>
