<svg xmlns="http://www.w3.org/2000/svg" viewBox="0 0 501 500">
  <path d="M1.125 35.8233C1.125 16.0442 17.6712 0 38.0728 0H464.177C484.579 0 501.125 16.0442 501.125 35.8233V464.197C501.125 483.976 484.579 500 464.177 500H38.0728C17.6712 500 1.125 483.976 1.125 464.197V35.8233Z" fill="#0A66C2"/>
  <path d="M153.073 418.434V193.333H78.2535V418.434H153.073ZM115.683 162.611C141.768 162.611 158.013 145.321 158.013 123.715C157.531 101.627 141.768 84.8193 116.185 84.8193C90.5829 84.8193 73.856 101.627 73.856 123.715C73.856 145.321 90.0809 162.611 115.201 162.611H115.683ZM194.478 418.434H269.298V292.731C269.298 286.004 269.78 279.277 271.768 274.478C277.169 261.024 289.478 247.108 310.161 247.108C337.229 247.108 348.053 267.751 348.053 298.012V418.414H422.872V289.357C422.872 220.221 385.964 188.052 336.748 188.052C296.386 188.052 278.675 210.602 268.816 225.964H269.318V193.333H194.478C195.462 214.458 194.478 418.434 194.478 418.434Z" fill="white"/>
</svg>
