<svg xmlns="http://www.w3.org/2000/svg" viewBox="0 0 24 24">
  <path fill="#24292F" d="M12 .296C5.372.296 0 5.668 0 12.296c0 5.302 3.438 9.8 8.206 11.386.6.111.82-.261.82-.577 0-.285-.01-1.039-.016-2.039-3.338.725-4.042-1.609-4.042-1.609-.546-1.385-1.334-1.754-1.334-1.754-1.09-.744.082-.729.082-.729 1.205.084 1.839 1.237 1.839 1.237 1.07 1.834 2.807 1.305 3.492.998.108-.775.418-1.305.762-1.605-2.665-.303-5.467-1.333-5.467-5.931 0-1.311.469-2.383 1.236-3.221-.124-.303-.535-1.524.117-3.176 0 0 1.008-.322 3.301 1.23a11.52 11.52 0 0 1 3.003-.403c1.018.005 2.042.138 3.003.403 2.291-1.552 3.297-1.23 3.297-1.23.653 1.653.242 2.874.118 3.176.77.838 1.235 1.91 1.235 3.221 0 4.609-2.807 5.625-5.479 5.921.43.371.814 1.102.814 2.222 0 1.604-.015 2.896-.015 3.286 0 .319.216.694.825.576C20.565 22.092 24 17.597 24 12.296 24 5.668 18.627.296 12 .296Z"/>
</svg>
